<svg xmlns="http://www.w3.org/2000/svg" viewBox="174 633 1150 240"><defs><clipPath id="f9901bffeb"><path d="M0 0h245v215H0z"/></clipPath></defs><g fill="#7c3aed" clip-path="url(#f9901bffeb)" transform="translate(184 643)"><path d="M73.8 43.438c-4.687-4.22-11.925-3.84-16.14.847L7.414 100.113a11.43 11.43 0 0 0 0 15.297l50.246 55.828a11.38 11.38 0 0 0 8.496 3.778c2.727 0 5.461-.965 7.645-2.93 4.691-4.227 5.07-11.453.847-16.149L31.29 107.763l43.36-48.176c4.222-4.695 3.843-11.922-.848-16.148m163.964 56.674L187.52 44.285c-4.22-4.687-11.446-5.066-16.141-.847-4.691 4.226-5.07 11.453-.848 16.148l43.36 48.176-43.36 48.176c-4.222 4.695-3.844 11.921.848 16.148a11.4 11.4 0 0 0 7.644 2.93 11.38 11.38 0 0 0 8.497-3.778l50.246-55.828a11.43 11.43 0 0 0 0-15.297M148.379 2.719c-6.149-1.489-12.32 2.246-13.824 8.379l-46.13 187.879c-1.507 6.132 2.243 12.316 8.376 13.828a11.5 11.5 0 0 0 2.73.328c5.145 0 9.813-3.492 11.094-8.707l46.129-187.883c1.508-6.129-2.246-12.313-8.375-13.824m0 0"/></g><path fill="#7c3aed" d="M605.48 726.148c0-14.972-14.977-27.789-30.099-27.789h-96.046v103.246h96.046c16.274 0 30.098-11.52 30.098-27.933Zm-19.442 47.524c0 6.191-3.598 9.215-10.657 9.215h-76.605v-66.098h76.605c5.184 0 10.657 4.32 10.657 9.36Zm157.394-47.379c0-16.559-14.113-27.79-30.098-27.79h-61.199c-15.984 0-30.242 11.087-30.242 27.79v47.379c0 15.98 14.977 27.933 30.242 27.933h89.567v-18.43h-89.567c-5.183 0-10.656-4.32-10.656-9.503v-47.38c0-6.19 3.598-9.358 10.656-9.358h61.2c7.054 0 10.656 3.167 10.656 9.359v5.043c0 5.039-5.617 9.215-10.657 9.215h-61.199v18.574h61.2c15.406 0 30.097-12.527 30.097-27.79ZM862.95 698.36l-18.43 71.855c-2.16 8.496-6.626 12.672-13.25 12.672h-20.59c-6.48 0-10.801-4.176-12.961-12.672l-18.575-71.856h-20.738l19.297 75.313c4.75 18.574 14.687 27.933 30.094 27.933h26.355c15.406 0 25.2-9.359 30.094-27.933l19.586-75.313Zm158.111 0h-19.293v42.19h-75.457v19.009h75.457v42.046h19.293Zm-100.797 0h-19.441v103.245h19.441Zm245.519 0h-19.442v75.312c0 6.191-3.597 9.215-10.656 9.215H1070.6c-7.058 0-10.656-3.024-10.656-9.215v-75.313h-19.586v75.313c0 16.414 13.54 27.933 30.242 27.933h65.086c16.274 0 30.098-11.664 30.098-27.933Zm140.4 70.413c0-15.406-14.687-27.933-30.097-27.933h-61.055v18.574h61.055c5.183 0 10.8 4.176 10.8 9.36v4.898c0 6.191-3.601 9.215-10.8 9.215h-61.055c-7.058 0-10.656-3.024-10.656-9.215v-75.313h-19.586v75.313c0 16.414 13.539 27.933 30.242 27.933h61.055c16.558 0 30.097-11.52 30.097-27.933Zm0 0"/></svg>