<svg xmlns="http://www.w3.org/2000/svg" width="2000" height="2000" viewBox="0 0 1500 1500"><defs><clipPath id="d27336ac42"><path d="M0 0h359v313H0z"/></clipPath></defs><g fill="#7c3aed" clip-path="url(#d27336ac42)" transform="translate(570 408)"><path d="M108.012 62.355c-6.864-6.175-17.461-5.62-23.633 1.243L10.82 145.332c-5.73 6.371-5.73 16.023 0 22.398l73.559 81.73c3.3 3.673 7.863 5.536 12.441 5.536 3.989 0 7.993-1.414 11.192-4.293 6.867-6.187 7.426-16.766 1.242-23.64L45.77 156.53l63.484-70.535c6.183-6.871 5.625-17.453-1.242-23.64m240.054 82.977-73.562-81.734c-6.176-6.864-16.758-7.418-23.629-1.243-6.871 6.188-7.426 16.77-1.242 23.641l63.48 70.535-63.48 70.532c-6.184 6.875-5.63 17.453 1.242 23.64a16.66 16.66 0 0 0 11.188 4.293c4.582 0 9.14-1.863 12.44-5.535l73.563-81.73c5.73-6.376 5.73-16.028 0-22.399M217.2 2.742c-9-2.18-18.04 3.29-20.24 12.266l-67.534 275.07c-2.207 8.977 3.285 18.031 12.262 20.242 1.34.328 2.68.48 3.996.48 7.53 0 14.367-5.109 16.238-12.75L229.46 22.985c2.203-8.98-3.285-18.03-12.262-20.242m0 0"/></g><path fill="#7c3aed" d="M388.063 828.009c0-18.72-18.718-34.739-37.617-34.739h-120.05v129.051h120.05c20.34 0 37.617-14.398 37.617-34.918Zm-24.297 59.394c0 7.738-4.5 11.52-13.32 11.52h-95.75v-82.614h95.75c6.48 0 13.32 5.399 13.32 11.7Zm196.715-59.215c0-20.699-17.64-34.738-37.617-34.738h-76.492c-19.98 0-37.797 13.86-37.797 34.738v59.215c0 19.98 18.719 34.918 37.797 34.918h111.95v-23.039h-111.95c-6.48 0-13.32-5.398-13.32-11.879v-59.215c0-7.738 4.5-11.699 13.32-11.699h76.492c8.82 0 13.32 3.961 13.32 11.7v6.3c0 6.297-7.02 11.52-13.32 11.52h-76.492v23.214h76.492c19.258 0 37.617-15.656 37.617-34.734Zm149.378-34.918-23.035 89.813c-2.704 10.621-8.282 15.84-16.559 15.84h-25.738c-8.102 0-13.5-5.219-16.2-15.84L605.11 793.27h-25.92l24.117 94.133c5.941 23.219 18.36 34.918 37.617 34.918h32.938c19.257 0 31.496-11.7 37.617-34.918l24.476-94.133Zm197.617 0h-24.117v52.739h-94.313v23.757h94.313v52.555h24.117Zm-125.988 0h-24.301v129.051h24.3Zm306.864 0h-24.297v94.133c0 7.738-4.5 11.52-13.32 11.52h-81.352c-8.82 0-13.32-3.782-13.32-11.52V793.27h-24.476v94.133c0 20.52 16.917 34.918 37.796 34.918h81.352c20.34 0 37.617-14.578 37.617-34.918Zm175.478 88.016c0-19.262-18.36-34.918-37.618-34.918H1149.9v23.219h76.312c6.48 0 13.5 5.219 13.5 11.699v6.117c0 7.738-4.5 11.52-13.5 11.52H1149.9c-8.82 0-13.32-3.782-13.32-11.52V793.27h-24.477v94.133c0 20.52 16.918 34.918 37.797 34.918h76.312c20.7 0 37.618-14.398 37.618-34.918Zm0 0"/></svg>