<svg xmlns="http://www.w3.org/2000/svg" width="2000" height="2000" viewBox="0 0 1500 1500"><defs><clipPath id="2a65e05c12"><path d="M0 0h573v501H0z"/></clipPath></defs><g fill="#7c3aed" clip-path="url(#2a65e05c12)" transform="translate(463 501)"><path d="M171.695 99.95c-10.992-9.895-27.96-9.005-37.847 1.987l-117.82 130.91c-9.18 10.208-9.18 25.669 0 35.876l117.82 130.91c5.289 5.883 12.59 8.863 19.925 8.863a26.7 26.7 0 0 0 17.922-6.875c11.004-9.91 11.895-26.855 1.993-37.863L72.004 250.785l101.684-112.969c9.902-11.011 9.011-27.957-1.993-37.867m384.493 132.899-117.82-130.91c-9.895-10.993-26.84-11.883-37.852-1.989-11 9.91-11.891 26.856-1.989 37.867l101.68 112.97-101.68 112.972c-9.902 11.008-9.011 27.953 1.989 37.863a26.7 26.7 0 0 0 17.921 6.875c7.336 0 14.641-2.98 19.93-8.863l117.82-130.91c9.18-10.207 9.18-25.668 0-35.875M346.578 4.465c-14.414-3.492-28.887 5.27-32.41 19.648L205.996 464.687c-3.535 14.38 5.258 28.88 19.637 32.422 2.148.524 4.293.766 6.406.766 12.059 0 23.008-8.184 26.008-20.414L366.219 36.887c3.535-14.38-5.262-28.88-19.64-32.422m0 0"/></g></svg>