<svg xmlns="http://www.w3.org/2000/svg" xmlns:xlink="http://www.w3.org/1999/xlink" width="100%" zoomAndPan="magnify" viewBox="174 633 1150 240" height="100%" preserveAspectRatio="xMidYMid meet" version="1.0"><defs><g/><clipPath id="f9901bffeb"><rect x="0" width="245" y="0" height="215"/></clipPath></defs><g transform="matrix(1, 0, 0, 1, 184, 643)"><g clip-path="url(#f9901bffeb)"><path fill="#7c3aed" d="M 73.800781 43.4375 C 69.113281 39.21875 61.875 39.597656 57.660156 44.285156 L 7.414062 100.113281 C 3.5 104.464844 3.5 111.058594 7.414062 115.410156 L 57.660156 171.238281 C 59.914062 173.746094 63.027344 175.015625 66.15625 175.015625 C 68.882812 175.015625 71.617188 174.050781 73.800781 172.085938 C 78.492188 167.859375 78.871094 160.632812 74.648438 155.9375 L 31.289062 107.761719 L 74.648438 59.585938 C 78.871094 54.890625 78.492188 47.664062 73.800781 43.4375 Z M 73.800781 43.4375 " fill-opacity="1" fill-rule="nonzero"/><path fill="#7c3aed" d="M 237.765625 100.113281 L 187.519531 44.285156 C 183.300781 39.597656 176.074219 39.21875 171.378906 43.4375 C 166.6875 47.664062 166.308594 54.890625 170.53125 59.585938 L 213.890625 107.761719 L 170.53125 155.9375 C 166.308594 160.632812 166.6875 167.859375 171.378906 172.085938 C 173.5625 174.050781 176.296875 175.015625 179.023438 175.015625 C 182.152344 175.015625 185.265625 173.746094 187.519531 171.238281 L 237.765625 115.410156 C 241.679688 111.058594 241.679688 104.464844 237.765625 100.113281 Z M 237.765625 100.113281 " fill-opacity="1" fill-rule="nonzero"/><path fill="#7c3aed" d="M 148.378906 2.71875 C 142.230469 1.230469 136.058594 4.964844 134.554688 11.097656 L 88.425781 198.976562 C 86.917969 205.109375 90.667969 211.292969 96.800781 212.804688 C 97.714844 213.027344 98.632812 213.132812 99.53125 213.132812 C 104.675781 213.132812 109.34375 209.640625 110.625 204.425781 L 156.753906 16.542969 C 158.261719 10.414062 154.507812 4.230469 148.378906 2.71875 Z M 148.378906 2.71875 " fill-opacity="1" fill-rule="nonzero"/></g></g><g fill="#7c3aed" fill-opacity="1"><g transform="translate(472.998626, 801.749911)"><g><path d="M 132.480469 -75.601562 C 132.480469 -90.574219 117.503906 -103.390625 102.382812 -103.390625 L 6.335938 -103.390625 L 6.335938 -0.144531 L 102.382812 -0.144531 C 118.65625 -0.144531 132.480469 -11.664062 132.480469 -28.078125 Z M 113.039062 -28.078125 C 113.039062 -21.886719 109.441406 -18.863281 102.382812 -18.863281 L 25.777344 -18.863281 L 25.777344 -84.960938 L 102.382812 -84.960938 C 107.566406 -84.960938 113.039062 -80.640625 113.039062 -75.601562 Z M 113.039062 -28.078125 "/></g></g></g><g fill="#7c3aed" fill-opacity="1"><g transform="translate(616.998546, 801.749911)"><g><path d="M 126.433594 -75.457031 C 126.433594 -92.015625 112.320312 -103.246094 96.335938 -103.246094 L 35.136719 -103.246094 C 19.152344 -103.246094 4.894531 -92.160156 4.894531 -75.457031 L 4.894531 -28.078125 C 4.894531 -12.097656 19.871094 -0.144531 35.136719 -0.144531 L 124.703125 -0.144531 L 124.703125 -18.574219 L 35.136719 -18.574219 C 29.953125 -18.574219 24.480469 -22.894531 24.480469 -28.078125 L 24.480469 -75.457031 C 24.480469 -81.648438 28.078125 -84.816406 35.136719 -84.816406 L 96.335938 -84.816406 C 103.390625 -84.816406 106.992188 -81.648438 106.992188 -75.457031 L 106.992188 -70.414062 C 106.992188 -65.375 101.375 -61.199219 96.335938 -61.199219 L 35.136719 -61.199219 L 35.136719 -42.625 L 96.335938 -42.625 C 111.742188 -42.625 126.433594 -55.152344 126.433594 -70.414062 Z M 126.433594 -75.457031 "/></g></g></g><g fill="#7c3aed" fill-opacity="1"><g transform="translate(756.390482, 801.749911)"><g><path d="M 106.558594 -103.390625 L 88.128906 -31.535156 C 85.96875 -23.039062 81.503906 -18.863281 74.878906 -18.863281 L 54.289062 -18.863281 C 47.808594 -18.863281 43.488281 -23.039062 41.328125 -31.535156 L 22.753906 -103.390625 L 2.015625 -103.390625 L 21.3125 -28.078125 C 26.0625 -9.503906 36 -0.144531 51.40625 -0.144531 L 77.761719 -0.144531 C 93.167969 -0.144531 102.960938 -9.503906 107.855469 -28.078125 L 127.441406 -103.390625 Z M 106.558594 -103.390625 "/></g></g></g><g fill="#7c3aed" fill-opacity="1"><g transform="translate(896.50241, 801.749911)"><g><path d="M 124.558594 -103.390625 L 105.265625 -103.390625 L 105.265625 -61.199219 L 29.808594 -61.199219 L 29.808594 -42.191406 L 105.265625 -42.191406 L 105.265625 -0.144531 L 124.558594 -0.144531 Z M 23.761719 -103.390625 L 4.320312 -103.390625 L 4.320312 -0.144531 L 23.761719 -0.144531 Z M 23.761719 -103.390625 "/></g></g></g><g fill="#7c3aed" fill-opacity="1"><g transform="translate(1033.302323, 801.749911)"><g><path d="M 132.480469 -103.390625 L 113.039062 -103.390625 L 113.039062 -28.078125 C 113.039062 -21.886719 109.441406 -18.863281 102.382812 -18.863281 L 37.296875 -18.863281 C 30.238281 -18.863281 26.640625 -21.886719 26.640625 -28.078125 L 26.640625 -103.390625 L 7.054688 -103.390625 L 7.054688 -28.078125 C 7.054688 -11.664062 20.59375 -0.144531 37.296875 -0.144531 L 102.382812 -0.144531 C 118.65625 -0.144531 132.480469 -11.808594 132.480469 -28.078125 Z M 132.480469 -103.390625 "/></g></g></g><g fill="#7c3aed" fill-opacity="1"><g transform="translate(1177.734258, 801.749911)"><g><path d="M 128.449219 -32.976562 C 128.449219 -48.382812 113.761719 -60.910156 98.351562 -60.910156 L 37.296875 -60.910156 L 37.296875 -42.335938 L 98.351562 -42.335938 C 103.535156 -42.335938 109.152344 -38.160156 109.152344 -32.976562 L 109.152344 -28.078125 C 109.152344 -21.886719 105.550781 -18.863281 98.351562 -18.863281 L 37.296875 -18.863281 C 30.238281 -18.863281 26.640625 -21.886719 26.640625 -28.078125 L 26.640625 -103.390625 L 7.054688 -103.390625 L 7.054688 -28.078125 C 7.054688 -11.664062 20.59375 -0.144531 37.296875 -0.144531 L 98.351562 -0.144531 C 114.910156 -0.144531 128.449219 -11.664062 128.449219 -28.078125 Z M 128.449219 -32.976562 "/></g></g></g></svg>