<svg xmlns="http://www.w3.org/2000/svg" xmlns:xlink="http://www.w3.org/1999/xlink" width="2000" zoomAndPan="magnify" viewBox="0 0 1500 1499.999933" height="2000" preserveAspectRatio="xMidYMid meet" version="1.0"><defs><g/><clipPath id="d27336ac42"><rect x="0" width="359" y="0" height="313"/></clipPath></defs><g transform="matrix(1, 0, 0, 1, 570, 408)"><g clip-path="url(#d27336ac42)"><path fill="#7c3aed" d="M 108.011719 62.355469 C 101.148438 56.179688 90.550781 56.734375 84.378906 63.597656 L 10.820312 145.332031 C 5.089844 151.703125 5.089844 161.355469 10.820312 167.730469 L 84.378906 249.460938 C 87.679688 253.132812 92.242188 254.996094 96.820312 254.996094 C 100.808594 254.996094 104.8125 253.582031 108.011719 250.703125 C 114.878906 244.515625 115.4375 233.9375 109.253906 227.0625 L 45.769531 156.53125 L 109.253906 85.996094 C 115.4375 79.125 114.878906 68.542969 108.011719 62.355469 Z M 108.011719 62.355469 " fill-opacity="1" fill-rule="nonzero"/><path fill="#7c3aed" d="M 348.066406 145.332031 L 274.503906 63.597656 C 268.328125 56.734375 257.746094 56.179688 250.875 62.355469 C 244.003906 68.542969 243.449219 79.125 249.632812 85.996094 L 313.113281 156.53125 L 249.632812 227.0625 C 243.449219 233.9375 244.003906 244.515625 250.875 250.703125 C 254.070312 253.582031 258.074219 254.996094 262.0625 254.996094 C 266.644531 254.996094 271.203125 253.132812 274.503906 249.460938 L 348.066406 167.730469 C 353.796875 161.355469 353.796875 151.703125 348.066406 145.332031 Z M 348.066406 145.332031 " fill-opacity="1" fill-rule="nonzero"/><path fill="#7c3aed" d="M 217.199219 2.742188 C 208.199219 0.5625 199.160156 6.03125 196.960938 15.007812 L 129.425781 290.078125 C 127.21875 299.054688 132.710938 308.109375 141.6875 310.320312 C 143.027344 310.648438 144.367188 310.800781 145.683594 310.800781 C 153.214844 310.800781 160.050781 305.691406 161.921875 298.050781 L 229.460938 22.984375 C 231.664062 14.003906 226.175781 4.953125 217.199219 2.742188 Z M 217.199219 2.742188 " fill-opacity="1" fill-rule="nonzero"/></g></g><g fill="#7c3aed" fill-opacity="1"><g transform="translate(222.477393, 922.500837)"><g><path d="M 165.585938 -94.492188 C 165.585938 -113.210938 146.867188 -129.230469 127.96875 -129.230469 L 7.917969 -129.230469 L 7.917969 -0.179688 L 127.96875 -0.179688 C 148.308594 -0.179688 165.585938 -14.578125 165.585938 -35.097656 Z M 141.289062 -35.097656 C 141.289062 -27.359375 136.789062 -23.578125 127.96875 -23.578125 L 32.21875 -23.578125 L 32.21875 -106.191406 L 127.96875 -106.191406 C 134.449219 -106.191406 141.289062 -100.792969 141.289062 -94.492188 Z M 141.289062 -35.097656 "/></g></g></g><g fill="#7c3aed" fill-opacity="1"><g transform="translate(402.453963, 922.500837)"><g><path d="M 158.027344 -94.3125 C 158.027344 -115.011719 140.386719 -129.050781 120.410156 -129.050781 L 43.917969 -129.050781 C 23.9375 -129.050781 6.121094 -115.191406 6.121094 -94.3125 L 6.121094 -35.097656 C 6.121094 -15.117188 24.839844 -0.179688 43.917969 -0.179688 L 155.867188 -0.179688 L 155.867188 -23.21875 L 43.917969 -23.21875 C 37.4375 -23.21875 30.597656 -28.617188 30.597656 -35.097656 L 30.597656 -94.3125 C 30.597656 -102.050781 35.097656 -106.011719 43.917969 -106.011719 L 120.410156 -106.011719 C 129.230469 -106.011719 133.730469 -102.050781 133.730469 -94.3125 L 133.730469 -88.011719 C 133.730469 -81.714844 126.710938 -76.492188 120.410156 -76.492188 L 43.917969 -76.492188 L 43.917969 -53.277344 L 120.410156 -53.277344 C 139.667969 -53.277344 158.027344 -68.933594 158.027344 -88.011719 Z M 158.027344 -94.3125 "/></g></g></g><g fill="#7c3aed" fill-opacity="1"><g transform="translate(576.671268, 922.500837)"><g><path d="M 133.1875 -129.230469 L 110.152344 -39.417969 C 107.449219 -28.796875 101.871094 -23.578125 93.59375 -23.578125 L 67.855469 -23.578125 C 59.753906 -23.578125 54.355469 -28.796875 51.65625 -39.417969 L 28.4375 -129.230469 L 2.519531 -129.230469 L 26.636719 -35.097656 C 32.578125 -11.878906 44.996094 -0.179688 64.253906 -0.179688 L 97.191406 -0.179688 C 116.449219 -0.179688 128.6875 -11.878906 134.808594 -35.097656 L 159.285156 -129.230469 Z M 133.1875 -129.230469 "/></g></g></g><g fill="#7c3aed" fill-opacity="1"><g transform="translate(751.788467, 922.500837)"><g><path d="M 155.6875 -129.230469 L 131.570312 -129.230469 L 131.570312 -76.492188 L 37.257812 -76.492188 L 37.257812 -52.734375 L 131.570312 -52.734375 L 131.570312 -0.179688 L 155.6875 -0.179688 Z M 29.699219 -129.230469 L 5.398438 -129.230469 L 5.398438 -0.179688 L 29.699219 -0.179688 Z M 29.699219 -129.230469 "/></g></g></g><g fill="#7c3aed" fill-opacity="1"><g transform="translate(922.766208, 922.500837)"><g><path d="M 165.585938 -129.230469 L 141.289062 -129.230469 L 141.289062 -35.097656 C 141.289062 -27.359375 136.789062 -23.578125 127.96875 -23.578125 L 46.617188 -23.578125 C 37.796875 -23.578125 33.296875 -27.359375 33.296875 -35.097656 L 33.296875 -129.230469 L 8.820312 -129.230469 L 8.820312 -35.097656 C 8.820312 -14.578125 25.738281 -0.179688 46.617188 -0.179688 L 127.96875 -0.179688 C 148.308594 -0.179688 165.585938 -14.757812 165.585938 -35.097656 Z M 165.585938 -129.230469 "/></g></g></g><g fill="#7c3aed" fill-opacity="1"><g transform="translate(1103.282732, 922.500837)"><g><path d="M 160.546875 -41.214844 C 160.546875 -60.476562 142.1875 -76.132812 122.929688 -76.132812 L 46.617188 -76.132812 L 46.617188 -52.914062 L 122.929688 -52.914062 C 129.410156 -52.914062 136.429688 -47.695312 136.429688 -41.214844 L 136.429688 -35.097656 C 136.429688 -27.359375 131.929688 -23.578125 122.929688 -23.578125 L 46.617188 -23.578125 C 37.796875 -23.578125 33.296875 -27.359375 33.296875 -35.097656 L 33.296875 -129.230469 L 8.820312 -129.230469 L 8.820312 -35.097656 C 8.820312 -14.578125 25.738281 -0.179688 46.617188 -0.179688 L 122.929688 -0.179688 C 143.628906 -0.179688 160.546875 -14.578125 160.546875 -35.097656 Z M 160.546875 -41.214844 "/></g></g></g></svg>